<mxfile host="65bd71144e">
    <diagram id="FDxkw32vJu8Hh-jHdVsI" name="Page-1">
        <mxGraphModel dx="1183" dy="830" grid="0" gridSize="10" guides="1" tooltips="1" connect="1" arrows="1" fold="1" page="0" pageScale="1" pageWidth="850" pageHeight="1100" background="#011636" math="0" shadow="0">
            <root>
                <mxCell id="0"/>
                <mxCell id="1" parent="0"/>
                <mxCell id="2" value="&lt;font style=&quot;font-size: 32px;&quot;&gt;10&lt;/font&gt;" style="whiteSpace=wrap;html=1;aspect=fixed;fontSize=32;fontFamily=Courier New;fillColor=#D5FEFF;fontColor=#000000;fontStyle=1;labelBorderColor=none;strokeColor=#000000;strokeWidth=1;" parent="1" vertex="1">
                    <mxGeometry x="40" y="200" width="80" height="80" as="geometry"/>
                </mxCell>
                <mxCell id="3" value="&lt;font style=&quot;font-size: 32px;&quot;&gt;2&lt;/font&gt;" style="whiteSpace=wrap;html=1;aspect=fixed;fontSize=32;fontFamily=Courier New;fillColor=#D5FEFF;fontColor=#000000;fontStyle=1;labelBorderColor=none;strokeColor=#000000;strokeWidth=1;" parent="1" vertex="1">
                    <mxGeometry x="120" y="200" width="80" height="80" as="geometry"/>
                </mxCell>
                <mxCell id="4" value="&lt;font style=&quot;font-size: 32px;&quot;&gt;3&lt;/font&gt;" style="whiteSpace=wrap;html=1;aspect=fixed;fontSize=32;fontFamily=Courier New;fillColor=#D5FEFF;fontColor=#000000;fontStyle=1;labelBorderColor=none;strokeColor=#000000;strokeWidth=1;" parent="1" vertex="1">
                    <mxGeometry x="200" y="200" width="80" height="80" as="geometry"/>
                </mxCell>
                <mxCell id="5" value="&lt;font style=&quot;font-size: 32px;&quot;&gt;7&lt;/font&gt;" style="whiteSpace=wrap;html=1;aspect=fixed;fontSize=32;fontFamily=Courier New;fillColor=#D5FEFF;fontColor=#000000;fontStyle=1;labelBorderColor=none;strokeColor=#000000;strokeWidth=1;" parent="1" vertex="1">
                    <mxGeometry x="280" y="200" width="80" height="80" as="geometry"/>
                </mxCell>
                <mxCell id="6" value="&lt;font style=&quot;font-size: 32px;&quot;&gt;4&lt;/font&gt;" style="whiteSpace=wrap;html=1;aspect=fixed;fontSize=32;fontFamily=Courier New;fillColor=#D5FEFF;fontColor=#000000;fontStyle=1;labelBorderColor=none;strokeColor=#000000;strokeWidth=1;" parent="1" vertex="1">
                    <mxGeometry x="360" y="200" width="80" height="80" as="geometry"/>
                </mxCell>
                <mxCell id="7" value="&lt;font style=&quot;font-size: 32px;&quot;&gt;13&lt;/font&gt;" style="whiteSpace=wrap;html=1;aspect=fixed;fontSize=32;fontFamily=Courier New;fillColor=#D5FEFF;fontColor=#000000;fontStyle=1;labelBorderColor=none;strokeColor=#000000;strokeWidth=1;" parent="1" vertex="1">
                    <mxGeometry x="440" y="200" width="80" height="80" as="geometry"/>
                </mxCell>
                <mxCell id="8" value="&lt;font style=&quot;font-size: 32px;&quot;&gt;11&lt;/font&gt;" style="whiteSpace=wrap;html=1;aspect=fixed;fontSize=32;fontFamily=Courier New;fillColor=#D5FEFF;fontColor=#000000;fontStyle=1;labelBorderColor=none;strokeColor=#000000;strokeWidth=1;" parent="1" vertex="1">
                    <mxGeometry x="520" y="200" width="80" height="80" as="geometry"/>
                </mxCell>
                <mxCell id="9" value="&lt;font style=&quot;font-size: 32px;&quot;&gt;9&lt;/font&gt;" style="whiteSpace=wrap;html=1;aspect=fixed;fontSize=32;fontFamily=Courier New;fillColor=#D5FEFF;fontColor=#000000;fontStyle=1;labelBorderColor=none;strokeColor=#000000;strokeWidth=1;" parent="1" vertex="1">
                    <mxGeometry x="600" y="200" width="80" height="80" as="geometry"/>
                </mxCell>
                <mxCell id="10" value="&lt;font style=&quot;font-size: 32px;&quot;&gt;10&lt;/font&gt;" style="whiteSpace=wrap;html=1;aspect=fixed;fontSize=32;fontFamily=Courier New;fillColor=#D4FDD5;fontColor=#000000;fontStyle=1;labelBorderColor=none;strokeColor=#000000;strokeWidth=1;" parent="1" vertex="1">
                    <mxGeometry x="280" y="360" width="80" height="80" as="geometry"/>
                </mxCell>
                <mxCell id="11" value="&lt;font style=&quot;font-size: 32px;&quot;&gt;2&lt;/font&gt;" style="whiteSpace=wrap;html=1;aspect=fixed;fontSize=32;fontFamily=Courier New;fillColor=#D4FDD5;fontColor=#000000;fontStyle=1;labelBorderColor=none;strokeColor=#000000;strokeWidth=1;" parent="1" vertex="1">
                    <mxGeometry x="40" y="360" width="80" height="80" as="geometry"/>
                </mxCell>
                <mxCell id="12" value="&lt;font style=&quot;font-size: 32px;&quot;&gt;3&lt;/font&gt;" style="whiteSpace=wrap;html=1;aspect=fixed;fontSize=32;fontFamily=Courier New;fillColor=#D4FDD5;fontColor=#000000;fontStyle=1;labelBorderColor=none;strokeColor=#000000;strokeWidth=1;" parent="1" vertex="1">
                    <mxGeometry x="120" y="360" width="80" height="80" as="geometry"/>
                </mxCell>
                <mxCell id="13" value="&lt;font style=&quot;font-size: 32px;&quot;&gt;7&lt;/font&gt;" style="whiteSpace=wrap;html=1;aspect=fixed;fontSize=32;fontFamily=Courier New;fillColor=#D4FDD5;fontColor=#000000;fontStyle=1;labelBorderColor=none;strokeColor=#000000;strokeWidth=1;" parent="1" vertex="1">
                    <mxGeometry x="200" y="360" width="80" height="80" as="geometry"/>
                </mxCell>
                <mxCell id="14" value="&lt;font style=&quot;font-size: 32px;&quot;&gt;4&lt;/font&gt;" style="whiteSpace=wrap;html=1;aspect=fixed;fontSize=32;fontFamily=Courier New;fillColor=#D4FDD5;fontColor=#000000;fontStyle=1;labelBorderColor=none;strokeColor=#000000;strokeWidth=1;" parent="1" vertex="1">
                    <mxGeometry x="390" y="360" width="80" height="80" as="geometry"/>
                </mxCell>
                <mxCell id="15" value="&lt;font style=&quot;font-size: 32px;&quot;&gt;13&lt;/font&gt;" style="whiteSpace=wrap;html=1;aspect=fixed;fontSize=32;fontFamily=Courier New;fillColor=#D4FDD5;fontColor=#000000;fontStyle=1;labelBorderColor=none;strokeColor=#000000;strokeWidth=1;" parent="1" vertex="1">
                    <mxGeometry x="630" y="360" width="80" height="80" as="geometry"/>
                </mxCell>
                <mxCell id="16" value="&lt;font style=&quot;font-size: 32px;&quot;&gt;11&lt;/font&gt;" style="whiteSpace=wrap;html=1;aspect=fixed;fontSize=32;fontFamily=Courier New;fillColor=#D4FDD5;fontColor=#000000;fontStyle=1;labelBorderColor=none;strokeColor=#000000;strokeWidth=1;" parent="1" vertex="1">
                    <mxGeometry x="550" y="360" width="80" height="80" as="geometry"/>
                </mxCell>
                <mxCell id="17" value="&lt;font style=&quot;font-size: 32px;&quot;&gt;9&lt;/font&gt;" style="whiteSpace=wrap;html=1;aspect=fixed;fontSize=32;fontFamily=Courier New;fillColor=#D4FDD5;fontColor=#000000;fontStyle=1;labelBorderColor=none;strokeColor=#000000;strokeWidth=1;" parent="1" vertex="1">
                    <mxGeometry x="470" y="360" width="80" height="80" as="geometry"/>
                </mxCell>
                <mxCell id="18" value="&lt;meta charset=&quot;utf-8&quot;&gt;&lt;span style=&quot;padding: 0px; margin: 0px; color: transparent; position: absolute; cursor: text; transform-origin: 0% 0%; font-style: normal; font-weight: 400; letter-spacing: normal; text-indent: 0px; text-transform: none; word-spacing: 0px; background-color: rgb(255, 255, 255); left: 53.3319px; top: 124.277px; font-size: 30.6324px; font-family: sans-serif; transform: scaleX(1.12526);&quot;&gt;&lt;br class=&quot;Apple-interchange-newline&quot;&gt;Divide &lt;/span&gt;&lt;span style=&quot;padding: 0px; margin: 0px; color: transparent; position: absolute; cursor: text; transform-origin: 0% 0%; font-style: normal; font-weight: 400; letter-spacing: normal; text-indent: 0px; text-transform: none; word-spacing: 0px; background-color: rgb(255, 255, 255); left: 158.514px; top: 124.277px; font-size: 30.6324px; font-family: sans-serif; transform: scaleX(0.983182);&quot;&gt;the &lt;/span&gt;&lt;span style=&quot;padding: 0px; margin: 0px; color: transparent; position: absolute; cursor: text; transform-origin: 0% 0%; font-style: normal; font-weight: 400; letter-spacing: normal; text-indent: 0px; text-transform: none; word-spacing: 0px; background-color: rgb(255, 255, 255); left: 208.772px; top: 124.277px; font-size: 30.6324px; font-family: sans-serif; transform: scaleX(1.02277);&quot;&gt;array &lt;/span&gt;&lt;span style=&quot;padding: 0px; margin: 0px; color: transparent; position: absolute; cursor: text; transform-origin: 0% 0%; font-style: normal; font-weight: 400; letter-spacing: normal; text-indent: 0px; text-transform: none; word-spacing: 0px; background-color: rgb(255, 255, 255); left: 288.777px; top: 124.277px; font-size: 30.6324px; font-family: sans-serif; transform: scaleX(1.05888);&quot;&gt;into &lt;/span&gt;&lt;span style=&quot;padding: 0px; margin: 0px; color: transparent; position: absolute; cursor: text; transform-origin: 0% 0%; font-style: normal; font-weight: 400; letter-spacing: normal; text-indent: 0px; text-transform: none; word-spacing: 0px; background-color: rgb(255, 255, 255); left: 350.082px; top: 124.277px; font-size: 30.6324px; font-family: sans-serif; transform: scaleX(1.11598);&quot;&gt;two&lt;/span&gt;&lt;span style=&quot;padding: 0px; margin: 0px; color: transparent; position: absolute; cursor: text; transform-origin: 0% 0%; font-style: normal; font-weight: 400; letter-spacing: normal; text-indent: 0px; text-transform: none; word-spacing: 0px; background-color: rgb(255, 255, 255); left: 410.962px; top: 124.277px; font-size: 30.6324px; font-family: sans-serif; transform: scaleX(0.986559);&quot;&gt;halves&lt;/span&gt;&lt;span style=&quot;padding: 0px; margin: 0px; color: transparent; position: absolute; cursor: text; transform-origin: 0% 0%; font-style: normal; font-weight: 400; letter-spacing: normal; text-indent: 0px; text-transform: none; word-spacing: 0px; background-color: rgb(255, 255, 255); left: 64.8989px; top: 186.856px; font-size: 11.2319px; font-family: monospace;&quot;&gt;✓&lt;/span&gt;&lt;span style=&quot;padding: 0px; margin: 0px; color: transparent; position: absolute; cursor: text; transform-origin: 0% 0%; font-style: normal; font-weight: 400; letter-spacing: normal; text-indent: 0px; text-transform: none; word-spacing: 0px; background-color: rgb(255, 255, 255); left: 80.3215px; top: 175.873px; font-size: 26.5481px; font-family: sans-serif; transform: scaleX(0.96201);&quot;&gt;just need &lt;/span&gt;&lt;span style=&quot;padding: 0px; margin: 0px; color: transparent; position: absolute; cursor: text; transform-origin: 0% 0%; font-style: normal; font-weight: 400; letter-spacing: normal; text-indent: 0px; text-transform: none; word-spacing: 0px; background-color: rgb(255, 255, 255); left: 190.979px; top: 175.873px; font-size: 26.5481px; font-family: sans-serif; transform: scaleX(0.996194);&quot;&gt;to &lt;/span&gt;&lt;span style=&quot;padding: 0px; margin: 0px; color: transparent; position: absolute; cursor: text; transform-origin: 0% 0%; font-style: normal; font-weight: 400; letter-spacing: normal; text-indent: 0px; text-transform: none; word-spacing: 0px; background-color: rgb(255, 255, 255); left: 220.378px; top: 175.873px; font-size: 26.5481px; font-family: sans-serif; transform: scaleX(0.990547);&quot;&gt;calculate the mid&lt;/span&gt;&lt;span style=&quot;padding: 0px; margin: 0px; color: transparent; position: absolute; cursor: text; transform-origin: 0% 0%; font-style: normal; font-weight: 400; letter-spacing: normal; text-indent: 0px; text-transform: none; word-spacing: 0px; background-color: rgb(255, 255, 255); left: 424.168px; top: 175.873px; font-size: 26.5481px; font-family: sans-serif; transform: scaleX(1.06123);&quot;&gt;point&lt;/span&gt;&lt;span style=&quot;padding: 0px; margin: 0px; color: transparent; position: absolute; cursor: text; transform-origin: 0% 0%; font-style: normal; font-weight: 400; letter-spacing: normal; text-indent: 0px; text-transform: none; word-spacing: 0px; background-color: rgb(255, 255, 255); left: 37.9094px; top: 247.066px; font-size: 14.2951px; font-family: monospace;&quot;&gt;‣&lt;/span&gt;&lt;span style=&quot;padding: 0px; margin: 0px; color: transparent; position: absolute; cursor: text; transform-origin: 0% 0%; font-style: normal; font-weight: 400; letter-spacing: normal; text-indent: 0px; text-transform: none; word-spacing: 0px; background-color: rgb(255, 255, 255); left: 53.3319px; top: 235.683px; font-size: 30.6324px; font-family: sans-serif; transform: scaleX(1.00768);&quot;&gt;Conquer &lt;/span&gt;&lt;span style=&quot;padding: 0px; margin: 0px; color: transparent; position: absolute; cursor: text; transform-origin: 0% 0%; font-style: normal; font-weight: 400; letter-spacing: normal; text-indent: 0px; text-transform: none; word-spacing: 0px; background-color: rgb(255, 255, 255); left: 180.163px; top: 235.683px; font-size: 30.6324px; font-family: sans-serif; transform: scaleX(1.04083);&quot;&gt;Recursively &lt;/span&gt;&lt;span style=&quot;padding: 0px; margin: 0px; color: transparent; position: absolute; cursor: text; transform-origin: 0% 0%; font-style: normal; font-weight: 400; letter-spacing: normal; text-indent: 0px; text-transform: none; word-spacing: 0px; background-color: rgb(255, 255, 255); left: 353.687px; top: 235.683px; font-size: 30.6324px; font-family: sans-serif; transform: scaleX(0.927308);&quot;&gt;each&lt;/span&gt;&lt;span style=&quot;padding: 0px; margin: 0px; color: transparent; position: absolute; cursor: text; transform-origin: 0% 0%; font-style: normal; font-weight: 400; letter-spacing: normal; text-indent: 0px; text-transform: none; word-spacing: 0px; background-color: rgb(255, 255, 255); left: 423.031px; top: 235.683px; font-size: 30.6324px; font-family: sans-serif; transform: scaleX(1.06224);&quot;&gt;half&lt;/span&gt;&lt;span style=&quot;padding: 0px; margin: 0px; color: transparent; position: absolute; cursor: text; transform-origin: 0% 0%; font-style: normal; font-weight: 400; letter-spacing: normal; text-indent: 0px; text-transform: none; word-spacing: 0px; background-color: rgb(255, 255, 255); left: 64.8989px; top: 298.018px; font-size: 11.2319px; font-family: monospace;&quot;&gt;✓&lt;/span&gt;&lt;span style=&quot;padding: 0px; margin: 0px; color: transparent; position: absolute; cursor: text; transform-origin: 0% 0%; font-style: normal; font-weight: 400; letter-spacing: normal; text-indent: 0px; text-transform: none; word-spacing: 0px; background-color: rgb(255, 255, 255); left: 80.3215px; top: 287.034px; font-size: 26.5481px; font-family: sans-serif; transform: scaleX(0.980999);&quot;&gt;call &lt;/span&gt;&lt;span style=&quot;padding: 0px; margin: 0px; color: transparent; position: absolute; cursor: text; transform-origin: 0% 0%; font-style: normal; font-weight: 400; letter-spacing: normal; text-indent: 0px; text-transform: none; word-spacing: 0px; background-color: rgb(255, 255, 255); left: 126.686px; top: 287.034px; font-size: 26.5481px; font-family: sans-serif; transform: scaleX(0.966463);&quot;&gt;Merge &lt;/span&gt;&lt;span style=&quot;padding: 0px; margin: 0px; color: transparent; position: absolute; cursor: text; transform-origin: 0% 0%; font-style: normal; font-weight: 400; letter-spacing: normal; text-indent: 0px; text-transform: none; word-spacing: 0px; background-color: rgb(255, 255, 255); left: 206.787px; top: 287.034px; font-size: 26.5481px; font-family: sans-serif; transform: scaleX(0.949839);&quot;&gt;Sort &lt;/span&gt;&lt;span style=&quot;padding: 0px; margin: 0px; color: transparent; position: absolute; cursor: text; transform-origin: 0% 0%; font-style: normal; font-weight: 400; letter-spacing: normal; text-indent: 0px; text-transform: none; word-spacing: 0px; background-color: rgb(255, 255, 255); left: 260.091px; top: 287.034px; font-size: 26.5481px; font-family: sans-serif; transform: scaleX(0.973033);&quot;&gt;on &lt;/span&gt;&lt;span style=&quot;padding: 0px; margin: 0px; color: transparent; position: absolute; cursor: text; transform-origin: 0% 0%; font-style: normal; font-weight: 400; letter-spacing: normal; text-indent: 0px; text-transform: none; word-spacing: 0px; background-color: rgb(255, 255, 255); left: 296.141px; top: 287.034px; font-size: 26.5481px; font-family: sans-serif; transform: scaleX(0.953083);&quot;&gt;each half (i.e. solve &lt;/span&gt;&lt;span style=&quot;padding: 0px; margin: 0px; color: transparent; position: absolute; cursor: text; transform-origin: 0% 0%; font-style: normal; font-weight: 400; letter-spacing: normal; text-indent: 0px; text-transform: none; word-spacing: 0px; background-color: rgb(255, 255, 255); left: 521.138px; top: 287.034px; font-size: 26.5481px; font-family: sans-serif; transform: scaleX(0.884897);&quot;&gt;2 &lt;/span&gt;&lt;span style=&quot;padding: 0px; margin: 0px; color: transparent; position: absolute; cursor: text; transform-origin: 0% 0%; font-style: normal; font-weight: 400; letter-spacing: normal; text-indent: 0px; text-transform: none; word-spacing: 0px; background-color: rgb(255, 255, 255); left: 540.801px; top: 287.034px; font-size: 26.5481px; font-family: sans-serif; transform: scaleX(0.995147);&quot;&gt;smaller&lt;/span&gt;&lt;span style=&quot;padding: 0px; margin: 0px; color: transparent; position: absolute; cursor: text; transform-origin: 0% 0%; font-style: normal; font-weight: 400; letter-spacing: normal; text-indent: 0px; text-transform: none; word-spacing: 0px; background-color: rgb(255, 255, 255); left: 632.836px; top: 287.034px; font-size: 26.5481px; font-family: sans-serif; transform: scaleX(0.988159);&quot;&gt;problems)&lt;/span&gt;&lt;span style=&quot;padding: 0px; margin: 0px; color: transparent; position: absolute; cursor: text; transform-origin: 0% 0%; font-style: normal; font-weight: 400; letter-spacing: normal; text-indent: 0px; text-transform: none; word-spacing: 0px; background-color: rgb(255, 255, 255); left: 37.9094px; top: 358.227px; font-size: 14.2951px; font-family: monospace;&quot;&gt;‣&lt;/span&gt;&lt;span style=&quot;padding: 0px; margin: 0px; color: transparent; position: absolute; cursor: text; transform-origin: 0% 0%; font-style: normal; font-weight: 400; letter-spacing: normal; text-indent: 0px; text-transform: none; word-spacing: 0px; background-color: rgb(255, 255, 255); left: 53.3319px; top: 346.844px; font-size: 30.6324px; font-family: sans-serif; transform: scaleX(1.04841);&quot;&gt;Merge&lt;/span&gt;&lt;span style=&quot;padding: 0px; margin: 0px; color: transparent; position: absolute; cursor: text; transform-origin: 0% 0%; font-style: normal; font-weight: 400; letter-spacing: normal; text-indent: 0px; text-transform: none; word-spacing: 0px; background-color: rgb(255, 255, 255); left: 151.863px; top: 346.844px; font-size: 30.6324px; font-family: sans-serif; transform: scaleX(1.00928);&quot;&gt;Solutions&lt;/span&gt;&lt;span style=&quot;padding: 0px; margin: 0px; color: transparent; position: absolute; cursor: text; transform-origin: 0% 0%; font-style: normal; font-weight: 400; letter-spacing: normal; text-indent: 0px; text-transform: none; word-spacing: 0px; background-color: rgb(255, 255, 255); left: 64.8989px; top: 409.424px; font-size: 11.2319px; font-family: monospace;&quot;&gt;✓&lt;/span&gt;&lt;span style=&quot;padding: 0px; margin: 0px; color: transparent; position: absolute; cursor: text; transform-origin: 0% 0%; font-style: normal; font-weight: 400; letter-spacing: normal; text-indent: 0px; text-transform: none; word-spacing: 0px; background-color: rgb(255, 255, 255); left: 80.3215px; top: 398.44px; font-size: 26.5481px; font-family: sans-serif; transform: scaleX(0.988652);&quot;&gt;after &lt;/span&gt;&lt;span style=&quot;padding: 0px; margin: 0px; color: transparent; position: absolute; cursor: text; transform-origin: 0% 0%; font-style: normal; font-weight: 400; letter-spacing: normal; text-indent: 0px; text-transform: none; word-spacing: 0px; background-color: rgb(255, 255, 255); left: 140.18px; top: 398.44px; font-size: 26.5481px; font-family: sans-serif; transform: scaleX(0.972177);&quot;&gt;both calls &lt;/span&gt;&lt;span style=&quot;padding: 0px; margin: 0px; color: transparent; position: absolute; cursor: text; transform-origin: 0% 0%; font-style: normal; font-weight: 400; letter-spacing: normal; text-indent: 0px; text-transform: none; word-spacing: 0px; background-color: rgb(255, 255, 255); left: 256.486px; top: 398.44px; font-size: 26.5481px; font-family: sans-serif; transform: scaleX(0.904007);&quot;&gt;are &lt;/span&gt;&lt;span style=&quot;padding: 0px; margin: 0px; color: transparent; position: absolute; cursor: text; transform-origin: 0% 0%; font-style: normal; font-weight: 400; letter-spacing: normal; text-indent: 0px; text-transform: none; word-spacing: 0px; background-color: rgb(255, 255, 255); left: 297.915px; top: 398.44px; font-size: 26.5481px; font-family: sans-serif; transform: scaleX(0.998336);&quot;&gt;finished, &lt;/span&gt;&lt;span style=&quot;padding: 0px; margin: 0px; color: transparent; position: absolute; cursor: text; transform-origin: 0% 0%; font-style: normal; font-weight: 400; letter-spacing: normal; text-indent: 0px; text-transform: none; word-spacing: 0px; background-color: rgb(255, 255, 255); left: 403.945px; top: 398.44px; font-size: 26.5481px; font-family: sans-serif; transform: scaleX(0.952087);&quot;&gt;proceed &lt;/span&gt;&lt;span style=&quot;padding: 0px; margin: 0px; color: transparent; position: absolute; cursor: text; transform-origin: 0% 0%; font-style: normal; font-weight: 400; letter-spacing: normal; text-indent: 0px; text-transform: none; word-spacing: 0px; background-color: rgb(255, 255, 255); left: 502.438px; top: 398.44px; font-size: 26.5481px; font-family: sans-serif; transform: scaleX(0.996194);&quot;&gt;to &lt;/span&gt;&lt;span style=&quot;padding: 0px; margin: 0px; color: transparent; position: absolute; cursor: text; transform-origin: 0% 0%; font-style: normal; font-weight: 400; letter-spacing: normal; text-indent: 0px; text-transform: none; word-spacing: 0px; background-color: rgb(255, 255, 255); left: 531.837px; top: 398.44px; font-size: 26.5481px; font-family: sans-serif; transform: scaleX(0.976996);&quot;&gt;merge &lt;/span&gt;&lt;span style=&quot;padding: 0px; margin: 0px; color: transparent; position: absolute; cursor: text; transform-origin: 0% 0%; font-style: normal; font-weight: 400; letter-spacing: normal; text-indent: 0px; text-transform: none; word-spacing: 0px; background-color: rgb(255, 255, 255); left: 612.709px; top: 398.44px; font-size: 26.5481px; font-family: sans-serif; transform: scaleX(0.984968);&quot;&gt;the&lt;/span&gt;&lt;span style=&quot;padding: 0px; margin: 0px; color: transparent; position: absolute; cursor: text; transform-origin: 0% 0%; font-style: normal; font-weight: 400; letter-spacing: normal; text-indent: 0px; text-transform: none; word-spacing: 0px; background-color: rgb(255, 255, 255); left: 655.719px; top: 398.44px; font-size: 26.5481px; font-family: sans-serif; transform: scaleX(1.00421);&quot;&gt;solutions&lt;/span&gt;" style="text;whiteSpace=wrap;html=1;fontSize=32;fontFamily=Courier New;fontColor=#000000;" parent="1" vertex="1">
                    <mxGeometry x="694.2062530517578" y="507.20001220703125" width="20" height="14" as="geometry"/>
                </mxCell>
                <mxCell id="19" value="&lt;font style=&quot;font-size: 32px&quot;&gt;1&lt;/font&gt;" style="whiteSpace=wrap;html=1;aspect=fixed;fontSize=32;fontFamily=Courier New;fillColor=#D5FEFF;fontColor=#000000;fontStyle=1;labelBorderColor=none;strokeColor=#000000;strokeWidth=1;" parent="1" vertex="1">
                    <mxGeometry x="40" y="1116" width="80" height="80" as="geometry"/>
                </mxCell>
                <mxCell id="20" value="&lt;font style=&quot;font-size: 32px;&quot;&gt;2&lt;/font&gt;" style="whiteSpace=wrap;html=1;aspect=fixed;fontSize=32;fontFamily=Courier New;fillColor=#D5FEFF;fontColor=#000000;fontStyle=1;labelBorderColor=none;strokeColor=#000000;strokeWidth=1;" parent="1" vertex="1">
                    <mxGeometry x="120" y="1116" width="80" height="80" as="geometry"/>
                </mxCell>
                <mxCell id="21" value="&lt;font style=&quot;font-size: 32px&quot;&gt;3&lt;/font&gt;" style="whiteSpace=wrap;html=1;aspect=fixed;fontSize=32;fontFamily=Courier New;fillColor=#D5FEFF;fontColor=#000000;fontStyle=1;labelBorderColor=none;strokeColor=#000000;strokeWidth=1;" parent="1" vertex="1">
                    <mxGeometry x="200" y="1116" width="80" height="80" as="geometry"/>
                </mxCell>
                <mxCell id="22" value="&lt;font style=&quot;font-size: 32px&quot;&gt;4&lt;/font&gt;" style="whiteSpace=wrap;html=1;aspect=fixed;fontSize=32;fontFamily=Courier New;fillColor=#D5FEFF;fontColor=#000000;fontStyle=1;labelBorderColor=none;strokeColor=#000000;strokeWidth=1;" parent="1" vertex="1">
                    <mxGeometry x="280" y="1116" width="80" height="80" as="geometry"/>
                </mxCell>
                <mxCell id="23" value="&lt;font style=&quot;font-size: 32px&quot;&gt;5&lt;/font&gt;" style="whiteSpace=wrap;html=1;aspect=fixed;fontSize=32;fontFamily=Courier New;fillColor=#D5FEFF;fontColor=#000000;fontStyle=1;labelBorderColor=none;strokeColor=#000000;strokeWidth=1;" parent="1" vertex="1">
                    <mxGeometry x="360" y="1116" width="80" height="80" as="geometry"/>
                </mxCell>
                <mxCell id="24" value="&lt;font style=&quot;font-size: 32px&quot;&gt;6&lt;/font&gt;" style="whiteSpace=wrap;html=1;aspect=fixed;fontSize=32;fontFamily=Courier New;fillColor=#D5FEFF;fontColor=#000000;fontStyle=1;labelBorderColor=none;strokeColor=#000000;strokeWidth=1;" parent="1" vertex="1">
                    <mxGeometry x="440" y="1116" width="80" height="80" as="geometry"/>
                </mxCell>
                <mxCell id="25" value="&lt;font style=&quot;font-size: 32px&quot;&gt;7&lt;/font&gt;" style="whiteSpace=wrap;html=1;aspect=fixed;fontSize=32;fontFamily=Courier New;fillColor=#D5FEFF;fontColor=#000000;fontStyle=1;labelBorderColor=none;strokeColor=#000000;strokeWidth=1;" parent="1" vertex="1">
                    <mxGeometry x="520" y="1116" width="80" height="80" as="geometry"/>
                </mxCell>
                <mxCell id="26" value="&lt;font style=&quot;font-size: 32px&quot;&gt;8&lt;/font&gt;" style="whiteSpace=wrap;html=1;aspect=fixed;fontSize=32;fontFamily=Courier New;fillColor=#D5FEFF;fontColor=#000000;fontStyle=1;labelBorderColor=none;strokeColor=#000000;strokeWidth=1;" parent="1" vertex="1">
                    <mxGeometry x="600" y="1116" width="80" height="80" as="geometry"/>
                </mxCell>
                <mxCell id="27" value="" style="endArrow=classic;html=1;strokeWidth=4;" edge="1" parent="1">
                    <mxGeometry width="50" height="50" relative="1" as="geometry">
                        <mxPoint x="280" y="679" as="sourcePoint"/>
                        <mxPoint x="206" y="734" as="targetPoint"/>
                    </mxGeometry>
                </mxCell>
                <mxCell id="28" value="" style="endArrow=classic;html=1;strokeWidth=4;" edge="1" parent="1">
                    <mxGeometry width="50" height="50" relative="1" as="geometry">
                        <mxPoint x="442" y="679" as="sourcePoint"/>
                        <mxPoint x="520" y="734" as="targetPoint"/>
                    </mxGeometry>
                </mxCell>
                <mxCell id="30" value="&lt;font style=&quot;font-size: 32px&quot;&gt;5&lt;/font&gt;" style="whiteSpace=wrap;html=1;aspect=fixed;fontSize=32;fontFamily=Courier New;fillColor=#D4FDD5;fontColor=#000000;fontStyle=1;labelBorderColor=none;strokeColor=#000000;strokeWidth=1;" vertex="1" parent="1">
                    <mxGeometry x="197" y="906" width="80" height="80" as="geometry"/>
                </mxCell>
                <mxCell id="31" value="&lt;font style=&quot;font-size: 32px&quot;&gt;1&lt;/font&gt;" style="whiteSpace=wrap;html=1;aspect=fixed;fontSize=32;fontFamily=Courier New;fillColor=#D4FDD5;fontColor=#000000;fontStyle=1;labelBorderColor=none;strokeColor=#000000;strokeWidth=1;" vertex="1" parent="1">
                    <mxGeometry x="-43" y="906" width="80" height="80" as="geometry"/>
                </mxCell>
                <mxCell id="32" value="2" style="whiteSpace=wrap;html=1;aspect=fixed;fontSize=32;fontFamily=Courier New;fillColor=#D4FDD5;fontColor=#000000;fontStyle=1;labelBorderColor=none;strokeColor=#000000;strokeWidth=1;" vertex="1" parent="1">
                    <mxGeometry x="37" y="906" width="80" height="80" as="geometry"/>
                </mxCell>
                <mxCell id="33" value="&lt;font style=&quot;font-size: 32px&quot;&gt;4&lt;/font&gt;" style="whiteSpace=wrap;html=1;aspect=fixed;fontSize=32;fontFamily=Courier New;fillColor=#D4FDD5;fontColor=#000000;fontStyle=1;labelBorderColor=none;strokeColor=#000000;strokeWidth=1;" vertex="1" parent="1">
                    <mxGeometry x="117" y="906" width="80" height="80" as="geometry"/>
                </mxCell>
                <mxCell id="34" value="&lt;font style=&quot;font-size: 32px&quot;&gt;3&lt;/font&gt;" style="whiteSpace=wrap;html=1;aspect=fixed;fontSize=32;fontFamily=Courier New;fillColor=#D4FDD5;fontColor=#000000;fontStyle=1;labelBorderColor=none;strokeColor=#000000;strokeWidth=1;" vertex="1" parent="1">
                    <mxGeometry x="437" y="906" width="80" height="80" as="geometry"/>
                </mxCell>
                <mxCell id="35" value="&lt;font style=&quot;font-size: 32px&quot;&gt;8&lt;/font&gt;" style="whiteSpace=wrap;html=1;aspect=fixed;fontSize=32;fontFamily=Courier New;fillColor=#D4FDD5;fontColor=#000000;fontStyle=1;labelBorderColor=none;strokeColor=#000000;strokeWidth=1;" vertex="1" parent="1">
                    <mxGeometry x="677" y="906" width="80" height="80" as="geometry"/>
                </mxCell>
                <mxCell id="36" value="&lt;font style=&quot;font-size: 32px&quot;&gt;7&lt;/font&gt;" style="whiteSpace=wrap;html=1;aspect=fixed;fontSize=32;fontFamily=Courier New;fillColor=#D4FDD5;fontColor=#000000;fontStyle=1;labelBorderColor=none;strokeColor=#000000;strokeWidth=1;" vertex="1" parent="1">
                    <mxGeometry x="597" y="906" width="80" height="80" as="geometry"/>
                </mxCell>
                <mxCell id="37" value="&lt;font style=&quot;font-size: 32px&quot;&gt;6&lt;/font&gt;" style="whiteSpace=wrap;html=1;aspect=fixed;fontSize=32;fontFamily=Courier New;fillColor=#D4FDD5;fontColor=#000000;fontStyle=1;labelBorderColor=none;strokeColor=#000000;strokeWidth=1;" vertex="1" parent="1">
                    <mxGeometry x="517" y="906" width="80" height="80" as="geometry"/>
                </mxCell>
                <mxCell id="38" value="" style="endArrow=classic;html=1;strokeWidth=4;" edge="1" parent="1">
                    <mxGeometry width="50" height="50" relative="1" as="geometry">
                        <mxPoint x="198" y="845" as="sourcePoint"/>
                        <mxPoint x="124" y="900" as="targetPoint"/>
                    </mxGeometry>
                </mxCell>
                <mxCell id="39" value="" style="endArrow=classic;html=1;strokeWidth=4;" edge="1" parent="1">
                    <mxGeometry width="50" height="50" relative="1" as="geometry">
                        <mxPoint x="520" y="845" as="sourcePoint"/>
                        <mxPoint x="598" y="900" as="targetPoint"/>
                    </mxGeometry>
                </mxCell>
                <mxCell id="40" value="&lt;font style=&quot;font-size: 32px&quot;&gt;2&lt;/font&gt;" style="whiteSpace=wrap;html=1;aspect=fixed;fontSize=32;fontFamily=Courier New;fillColor=#D4FDD5;fontColor=#000000;fontStyle=1;labelBorderColor=none;strokeColor=#000000;strokeWidth=1;" vertex="1" parent="1">
                    <mxGeometry x="-120" y="759" width="80" height="80" as="geometry"/>
                </mxCell>
                <mxCell id="41" value="4" style="whiteSpace=wrap;html=1;aspect=fixed;fontSize=32;fontFamily=Courier New;fillColor=#D4FDD5;fontColor=#000000;fontStyle=1;labelBorderColor=none;strokeColor=#000000;strokeWidth=1;" vertex="1" parent="1">
                    <mxGeometry x="-40" y="759" width="80" height="80" as="geometry"/>
                </mxCell>
                <mxCell id="42" value="&lt;font style=&quot;font-size: 32px&quot;&gt;5&lt;/font&gt;" style="whiteSpace=wrap;html=1;aspect=fixed;fontSize=32;fontFamily=Courier New;fillColor=#D4FDD5;fontColor=#000000;fontStyle=1;labelBorderColor=none;strokeColor=#000000;strokeWidth=1;" vertex="1" parent="1">
                    <mxGeometry x="200" y="759" width="80" height="80" as="geometry"/>
                </mxCell>
                <mxCell id="43" value="&lt;font style=&quot;font-size: 32px&quot;&gt;1&lt;/font&gt;" style="whiteSpace=wrap;html=1;aspect=fixed;fontSize=32;fontFamily=Courier New;fillColor=#D4FDD5;fontColor=#000000;fontStyle=1;labelBorderColor=none;strokeColor=#000000;strokeWidth=1;" vertex="1" parent="1">
                    <mxGeometry x="120" y="759" width="80" height="80" as="geometry"/>
                </mxCell>
                <mxCell id="44" value="&lt;font style=&quot;font-size: 32px&quot;&gt;3&lt;/font&gt;" style="whiteSpace=wrap;html=1;aspect=fixed;fontSize=32;fontFamily=Courier New;fillColor=#D4FDD5;fontColor=#000000;fontStyle=1;labelBorderColor=none;strokeColor=#000000;strokeWidth=1;" vertex="1" parent="1">
                    <mxGeometry x="440" y="759" width="80" height="80" as="geometry"/>
                </mxCell>
                <mxCell id="45" value="&lt;font style=&quot;font-size: 32px&quot;&gt;6&lt;/font&gt;" style="whiteSpace=wrap;html=1;aspect=fixed;fontSize=32;fontFamily=Courier New;fillColor=#D4FDD5;fontColor=#000000;fontStyle=1;labelBorderColor=none;strokeColor=#000000;strokeWidth=1;" vertex="1" parent="1">
                    <mxGeometry x="520" y="759" width="80" height="80" as="geometry"/>
                </mxCell>
                <mxCell id="46" value="&lt;font style=&quot;font-size: 32px&quot;&gt;8&lt;/font&gt;" style="whiteSpace=wrap;html=1;aspect=fixed;fontSize=32;fontFamily=Courier New;fillColor=#D4FDD5;fontColor=#000000;fontStyle=1;labelBorderColor=none;strokeColor=#000000;strokeWidth=1;" vertex="1" parent="1">
                    <mxGeometry x="760" y="759" width="80" height="80" as="geometry"/>
                </mxCell>
                <mxCell id="47" value="&lt;font style=&quot;font-size: 32px&quot;&gt;7&lt;/font&gt;" style="whiteSpace=wrap;html=1;aspect=fixed;fontSize=32;fontFamily=Courier New;fillColor=#D4FDD5;fontColor=#000000;fontStyle=1;labelBorderColor=none;strokeColor=#000000;strokeWidth=1;" vertex="1" parent="1">
                    <mxGeometry x="680" y="759" width="80" height="80" as="geometry"/>
                </mxCell>
                <mxCell id="48" value="&lt;font style=&quot;font-size: 32px&quot;&gt;2&lt;/font&gt;" style="whiteSpace=wrap;html=1;aspect=fixed;fontSize=32;fontFamily=Courier New;fillColor=#D4FDD5;fontColor=#000000;fontStyle=1;labelBorderColor=none;strokeColor=#000000;strokeWidth=1;" vertex="1" parent="1">
                    <mxGeometry x="-123" y="589" width="80" height="80" as="geometry"/>
                </mxCell>
                <mxCell id="49" value="4" style="whiteSpace=wrap;html=1;aspect=fixed;fontSize=32;fontFamily=Courier New;fillColor=#D4FDD5;fontColor=#000000;fontStyle=1;labelBorderColor=none;strokeColor=#000000;strokeWidth=1;" vertex="1" parent="1">
                    <mxGeometry x="-5" y="589" width="80" height="80" as="geometry"/>
                </mxCell>
                <mxCell id="50" value="&lt;font style=&quot;font-size: 32px&quot;&gt;5&lt;/font&gt;" style="whiteSpace=wrap;html=1;aspect=fixed;fontSize=32;fontFamily=Courier New;fillColor=#D4FDD5;fontColor=#000000;fontStyle=1;labelBorderColor=none;strokeColor=#000000;strokeWidth=1;" vertex="1" parent="1">
                    <mxGeometry x="243" y="589" width="80" height="80" as="geometry"/>
                </mxCell>
                <mxCell id="51" value="&lt;font style=&quot;font-size: 32px&quot;&gt;1&lt;/font&gt;" style="whiteSpace=wrap;html=1;aspect=fixed;fontSize=32;fontFamily=Courier New;fillColor=#D4FDD5;fontColor=#000000;fontStyle=1;labelBorderColor=none;strokeColor=#000000;strokeWidth=1;" vertex="1" parent="1">
                    <mxGeometry x="117" y="589" width="80" height="80" as="geometry"/>
                </mxCell>
                <mxCell id="52" value="&lt;font style=&quot;font-size: 32px&quot;&gt;3&lt;/font&gt;" style="whiteSpace=wrap;html=1;aspect=fixed;fontSize=32;fontFamily=Courier New;fillColor=#D4FDD5;fontColor=#000000;fontStyle=1;labelBorderColor=none;strokeColor=#000000;strokeWidth=1;" vertex="1" parent="1">
                    <mxGeometry x="399" y="589" width="80" height="80" as="geometry"/>
                </mxCell>
                <mxCell id="53" value="&lt;font style=&quot;font-size: 32px&quot;&gt;6&lt;/font&gt;" style="whiteSpace=wrap;html=1;aspect=fixed;fontSize=32;fontFamily=Courier New;fillColor=#D4FDD5;fontColor=#000000;fontStyle=1;labelBorderColor=none;strokeColor=#000000;strokeWidth=1;" vertex="1" parent="1">
                    <mxGeometry x="517" y="589" width="80" height="80" as="geometry"/>
                </mxCell>
                <mxCell id="54" value="&lt;font style=&quot;font-size: 32px&quot;&gt;8&lt;/font&gt;" style="whiteSpace=wrap;html=1;aspect=fixed;fontSize=32;fontFamily=Courier New;fillColor=#D4FDD5;fontColor=#000000;fontStyle=1;labelBorderColor=none;strokeColor=#000000;strokeWidth=1;" vertex="1" parent="1">
                    <mxGeometry x="757" y="589" width="80" height="80" as="geometry"/>
                </mxCell>
                <mxCell id="55" value="&lt;font style=&quot;font-size: 32px&quot;&gt;7&lt;/font&gt;" style="whiteSpace=wrap;html=1;aspect=fixed;fontSize=32;fontFamily=Courier New;fillColor=#D4FDD5;fontColor=#000000;fontStyle=1;labelBorderColor=none;strokeColor=#000000;strokeWidth=1;" vertex="1" parent="1">
                    <mxGeometry x="641" y="589" width="80" height="80" as="geometry"/>
                </mxCell>
                <mxCell id="56" value="" style="endArrow=classic;html=1;strokeWidth=4;" edge="1" parent="1">
                    <mxGeometry width="50" height="50" relative="1" as="geometry">
                        <mxPoint x="121" y="1010.9999999999998" as="sourcePoint"/>
                        <mxPoint x="47.00000000000023" y="1066" as="targetPoint"/>
                    </mxGeometry>
                </mxCell>
                <mxCell id="57" value="" style="endArrow=classic;html=1;strokeWidth=4;" edge="1" parent="1">
                    <mxGeometry width="50" height="50" relative="1" as="geometry">
                        <mxPoint x="598" y="1010.9999999999998" as="sourcePoint"/>
                        <mxPoint x="676" y="1066" as="targetPoint"/>
                    </mxGeometry>
                </mxCell>
                <mxCell id="58" value="0" style="text;html=1;strokeColor=none;fillColor=none;align=center;verticalAlign=middle;whiteSpace=wrap;rounded=0;" vertex="1" parent="1">
                    <mxGeometry x="40" y="1086" width="81" height="30" as="geometry"/>
                </mxCell>
                <mxCell id="63" value="1" style="text;html=1;strokeColor=none;fillColor=none;align=center;verticalAlign=middle;whiteSpace=wrap;rounded=0;" vertex="1" parent="1">
                    <mxGeometry x="119" y="1086" width="81" height="30" as="geometry"/>
                </mxCell>
                <mxCell id="64" value="2" style="text;html=1;strokeColor=none;fillColor=none;align=center;verticalAlign=middle;whiteSpace=wrap;rounded=0;" vertex="1" parent="1">
                    <mxGeometry x="200" y="1086" width="81" height="30" as="geometry"/>
                </mxCell>
                <mxCell id="65" value="3" style="text;html=1;strokeColor=none;fillColor=none;align=center;verticalAlign=middle;whiteSpace=wrap;rounded=0;" vertex="1" parent="1">
                    <mxGeometry x="281" y="1086" width="81" height="30" as="geometry"/>
                </mxCell>
                <mxCell id="66" value="4" style="text;html=1;strokeColor=none;fillColor=none;align=center;verticalAlign=middle;whiteSpace=wrap;rounded=0;" vertex="1" parent="1">
                    <mxGeometry x="360" y="1086" width="81" height="30" as="geometry"/>
                </mxCell>
                <mxCell id="67" value="5" style="text;html=1;strokeColor=none;fillColor=none;align=center;verticalAlign=middle;whiteSpace=wrap;rounded=0;" vertex="1" parent="1">
                    <mxGeometry x="441" y="1086" width="81" height="30" as="geometry"/>
                </mxCell>
                <mxCell id="68" value="6" style="text;html=1;strokeColor=none;fillColor=none;align=center;verticalAlign=middle;whiteSpace=wrap;rounded=0;" vertex="1" parent="1">
                    <mxGeometry x="519" y="1086" width="81" height="30" as="geometry"/>
                </mxCell>
                <mxCell id="69" value="7" style="text;html=1;strokeColor=none;fillColor=none;align=center;verticalAlign=middle;whiteSpace=wrap;rounded=0;" vertex="1" parent="1">
                    <mxGeometry x="599" y="1086" width="81" height="30" as="geometry"/>
                </mxCell>
                <mxCell id="70" value="&lt;meta charset=&quot;utf-8&quot;&gt;&lt;span style=&quot;padding: 0px; margin: 0px; color: transparent; position: absolute; cursor: text; transform-origin: 0% 0%; font-style: normal; font-weight: 400; letter-spacing: normal; text-indent: 0px; text-transform: none; word-spacing: 0px; background-color: rgb(255, 255, 255); left: 44.8811px; top: 53.8794px; font-size: 68.7356px; font-family: sans-serif; transform: scaleX(1.04431);&quot;&gt;Merging &lt;/span&gt;&lt;span style=&quot;padding: 0px; margin: 0px; color: transparent; position: absolute; cursor: text; transform-origin: 0% 0%; font-style: normal; font-weight: 400; letter-spacing: normal; text-indent: 0px; text-transform: none; word-spacing: 0px; background-color: rgb(255, 255, 255); left: 323.781px; top: 53.8794px; font-size: 68.7356px; font-family: sans-serif; transform: scaleX(1.07464);&quot;&gt;two &lt;/span&gt;&lt;span style=&quot;padding: 0px; margin: 0px; color: transparent; position: absolute; cursor: text; transform-origin: 0% 0%; font-style: normal; font-weight: 400; letter-spacing: normal; text-indent: 0px; text-transform: none; word-spacing: 0px; background-color: rgb(255, 255, 255); left: 459.179px; top: 53.8794px; font-size: 68.7356px; font-family: sans-serif; transform: scaleX(1.00537);&quot;&gt;sorted&lt;/span&gt;&lt;span style=&quot;padding: 0px; margin: 0px; color: transparent; position: absolute; cursor: text; transform-origin: 0% 0%; font-style: normal; font-weight: 400; letter-spacing: normal; text-indent: 0px; text-transform: none; word-spacing: 0px; background-color: rgb(255, 255, 255); left: 668.058px; top: 53.8794px; font-size: 68.7356px; font-family: sans-serif; transform: scaleX(1.005);&quot;&gt;arrays&lt;/span&gt;" style="text;whiteSpace=wrap;html=1;" vertex="1" parent="1">
                    <mxGeometry x="768.5803091866633" y="731.5714983258929" width="20" height="14" as="geometry"/>
                </mxCell>
                <mxCell id="71" value="&lt;meta charset=&quot;utf-8&quot;&gt;&lt;span style=&quot;padding: 0px; margin: 0px; color: transparent; position: absolute; cursor: text; transform-origin: 0% 0%; font-style: normal; font-weight: 400; letter-spacing: normal; text-indent: 0px; text-transform: none; word-spacing: 0px; background-color: rgb(255, 255, 255); left: 44.8811px; top: 53.8794px; font-size: 68.7356px; font-family: sans-serif; transform: scaleX(1.04431);&quot;&gt;Merging &lt;/span&gt;&lt;span style=&quot;padding: 0px; margin: 0px; color: transparent; position: absolute; cursor: text; transform-origin: 0% 0%; font-style: normal; font-weight: 400; letter-spacing: normal; text-indent: 0px; text-transform: none; word-spacing: 0px; background-color: rgb(255, 255, 255); left: 323.781px; top: 53.8794px; font-size: 68.7356px; font-family: sans-serif; transform: scaleX(1.07464);&quot;&gt;two &lt;/span&gt;&lt;span style=&quot;padding: 0px; margin: 0px; color: transparent; position: absolute; cursor: text; transform-origin: 0% 0%; font-style: normal; font-weight: 400; letter-spacing: normal; text-indent: 0px; text-transform: none; word-spacing: 0px; background-color: rgb(255, 255, 255); left: 459.179px; top: 53.8794px; font-size: 68.7356px; font-family: sans-serif; transform: scaleX(1.00537);&quot;&gt;sorted&lt;/span&gt;&lt;span style=&quot;padding: 0px; margin: 0px; color: transparent; position: absolute; cursor: text; transform-origin: 0% 0%; font-style: normal; font-weight: 400; letter-spacing: normal; text-indent: 0px; text-transform: none; word-spacing: 0px; background-color: rgb(255, 255, 255); left: 668.058px; top: 53.8794px; font-size: 68.7356px; font-family: sans-serif; transform: scaleX(1.005);&quot;&gt;arrays&lt;/span&gt;" style="text;whiteSpace=wrap;html=1;" vertex="1" parent="1">
                    <mxGeometry x="898.5803091866633" y="485.85721261160734" width="20" height="14" as="geometry"/>
                </mxCell>
                <mxCell id="72" value="&lt;font style=&quot;font-size: 32px&quot;&gt;15&lt;/font&gt;" style="whiteSpace=wrap;html=1;aspect=fixed;fontSize=32;fontFamily=Courier New;fillColor=#D4FDD5;fontColor=#000000;fontStyle=1;labelBorderColor=none;strokeColor=#000000;strokeWidth=1;" vertex="1" parent="1">
                    <mxGeometry x="280" y="1321" width="80" height="80" as="geometry"/>
                </mxCell>
                <mxCell id="73" value="&lt;font style=&quot;font-size: 32px;&quot;&gt;2&lt;/font&gt;" style="whiteSpace=wrap;html=1;aspect=fixed;fontSize=32;fontFamily=Courier New;fillColor=#D4FDD5;fontColor=#000000;fontStyle=1;labelBorderColor=none;strokeColor=#000000;strokeWidth=1;" vertex="1" parent="1">
                    <mxGeometry x="40" y="1321" width="80" height="80" as="geometry"/>
                </mxCell>
                <mxCell id="74" value="&lt;font style=&quot;font-size: 32px&quot;&gt;5&lt;/font&gt;" style="whiteSpace=wrap;html=1;aspect=fixed;fontSize=32;fontFamily=Courier New;fillColor=#D4FDD5;fontColor=#000000;fontStyle=1;labelBorderColor=none;strokeColor=#000000;strokeWidth=1;" vertex="1" parent="1">
                    <mxGeometry x="120" y="1321" width="80" height="80" as="geometry"/>
                </mxCell>
                <mxCell id="75" value="&lt;font style=&quot;font-size: 32px&quot;&gt;10&lt;/font&gt;" style="whiteSpace=wrap;html=1;aspect=fixed;fontSize=32;fontFamily=Courier New;fillColor=#D4FDD5;fontColor=#000000;fontStyle=1;labelBorderColor=none;strokeColor=#000000;strokeWidth=1;" vertex="1" parent="1">
                    <mxGeometry x="200" y="1321" width="80" height="80" as="geometry"/>
                </mxCell>
                <mxCell id="76" value="&lt;font style=&quot;font-size: 32px&quot;&gt;3&lt;/font&gt;" style="whiteSpace=wrap;html=1;aspect=fixed;fontSize=32;fontFamily=Courier New;fillColor=#D4FDD5;fontColor=#000000;fontStyle=1;labelBorderColor=none;strokeColor=#000000;strokeWidth=1;" vertex="1" parent="1">
                    <mxGeometry x="390" y="1321" width="80" height="80" as="geometry"/>
                </mxCell>
                <mxCell id="77" value="&lt;font style=&quot;font-size: 32px&quot;&gt;16&lt;/font&gt;" style="whiteSpace=wrap;html=1;aspect=fixed;fontSize=32;fontFamily=Courier New;fillColor=#D4FDD5;fontColor=#000000;fontStyle=1;labelBorderColor=none;strokeColor=#000000;strokeWidth=1;" vertex="1" parent="1">
                    <mxGeometry x="630" y="1321" width="80" height="80" as="geometry"/>
                </mxCell>
                <mxCell id="78" value="&lt;font style=&quot;font-size: 32px&quot;&gt;9&lt;/font&gt;" style="whiteSpace=wrap;html=1;aspect=fixed;fontSize=32;fontFamily=Courier New;fillColor=#D4FDD5;fontColor=#000000;fontStyle=1;labelBorderColor=none;strokeColor=#000000;strokeWidth=1;" vertex="1" parent="1">
                    <mxGeometry x="550" y="1321" width="80" height="80" as="geometry"/>
                </mxCell>
                <mxCell id="79" value="&lt;font style=&quot;font-size: 32px&quot;&gt;6&lt;/font&gt;" style="whiteSpace=wrap;html=1;aspect=fixed;fontSize=32;fontFamily=Courier New;fillColor=#D4FDD5;fontColor=#000000;fontStyle=1;labelBorderColor=none;strokeColor=#000000;strokeWidth=1;" vertex="1" parent="1">
                    <mxGeometry x="470" y="1321" width="80" height="80" as="geometry"/>
                </mxCell>
                <mxCell id="80" value="&lt;font style=&quot;font-size: 32px&quot;&gt;1&lt;/font&gt;" style="whiteSpace=wrap;html=1;aspect=fixed;fontSize=32;fontFamily=Courier New;fillColor=#D4FDD5;fontColor=#000000;fontStyle=1;labelBorderColor=none;strokeColor=#000000;strokeWidth=1;" vertex="1" parent="1">
                    <mxGeometry x="-40" y="1321" width="80" height="80" as="geometry"/>
                </mxCell>
                <mxCell id="81" value="&lt;font style=&quot;font-size: 32px&quot;&gt;20&lt;/font&gt;" style="whiteSpace=wrap;html=1;aspect=fixed;fontSize=32;fontFamily=Courier New;fillColor=#D4FDD5;fontColor=#000000;fontStyle=1;labelBorderColor=none;strokeColor=#000000;strokeWidth=1;" vertex="1" parent="1">
                    <mxGeometry x="710" y="1321" width="80" height="80" as="geometry"/>
                </mxCell>
                <mxCell id="82" value="&lt;b style=&quot;color: rgb(255 , 0 , 0) ; font-family: &amp;#34;courier new&amp;#34; ; font-size: 28px ; background-color: rgb(1 , 22 , 54)&quot;&gt;i&lt;/b&gt;" style="text;html=1;strokeColor=none;fillColor=none;align=left;verticalAlign=middle;whiteSpace=wrap;rounded=0;" vertex="1" parent="1">
                    <mxGeometry x="-39" y="1402" width="79" height="53" as="geometry"/>
                </mxCell>
                <mxCell id="84" value="&lt;b style=&quot;color: rgb(255 , 0 , 0) ; font-family: &amp;#34;courier new&amp;#34; ; font-size: 28px ; font-style: normal ; letter-spacing: normal ; text-indent: 0px ; text-transform: none ; word-spacing: 0px ; background-color: rgb(1 , 22 , 54)&quot;&gt;j&lt;/b&gt;" style="text;whiteSpace=wrap;html=1;fontSize=28;fontFamily=Courier New;fontColor=#FF0000;verticalAlign=middle;align=left;" vertex="1" parent="1">
                    <mxGeometry x="390" y="1402" width="80" height="48" as="geometry"/>
                </mxCell>
                <mxCell id="85" value="&lt;font style=&quot;font-size: 32px&quot;&gt;1&lt;/font&gt;" style="whiteSpace=wrap;html=1;aspect=fixed;fontSize=32;fontFamily=Courier New;fillColor=#D5FEFF;fontColor=#000000;fontStyle=1;labelBorderColor=none;strokeColor=#000000;strokeWidth=1;" vertex="1" parent="1">
                    <mxGeometry x="-19" y="1500" width="80" height="80" as="geometry"/>
                </mxCell>
                <mxCell id="86" value="&lt;font style=&quot;font-size: 32px;&quot;&gt;2&lt;/font&gt;" style="whiteSpace=wrap;html=1;aspect=fixed;fontSize=32;fontFamily=Courier New;fillColor=#D5FEFF;fontColor=#000000;fontStyle=1;labelBorderColor=none;strokeColor=#000000;strokeWidth=1;" vertex="1" parent="1">
                    <mxGeometry x="61" y="1500" width="80" height="80" as="geometry"/>
                </mxCell>
                <mxCell id="87" value="&lt;font style=&quot;font-size: 32px&quot;&gt;3&lt;/font&gt;" style="whiteSpace=wrap;html=1;aspect=fixed;fontSize=32;fontFamily=Courier New;fillColor=#D5FEFF;fontColor=#000000;fontStyle=1;labelBorderColor=none;strokeColor=#000000;strokeWidth=1;" vertex="1" parent="1">
                    <mxGeometry x="141" y="1500" width="80" height="80" as="geometry"/>
                </mxCell>
                <mxCell id="88" value="&lt;font style=&quot;font-size: 32px&quot;&gt;5&lt;/font&gt;" style="whiteSpace=wrap;html=1;aspect=fixed;fontSize=32;fontFamily=Courier New;fillColor=#D5FEFF;fontColor=#000000;fontStyle=1;labelBorderColor=none;strokeColor=#000000;strokeWidth=1;" vertex="1" parent="1">
                    <mxGeometry x="221" y="1500" width="80" height="80" as="geometry"/>
                </mxCell>
                <mxCell id="89" value="&lt;font style=&quot;font-size: 32px&quot;&gt;6&lt;/font&gt;" style="whiteSpace=wrap;html=1;aspect=fixed;fontSize=32;fontFamily=Courier New;fillColor=#D5FEFF;fontColor=#000000;fontStyle=1;labelBorderColor=none;strokeColor=#000000;strokeWidth=1;" vertex="1" parent="1">
                    <mxGeometry x="299" y="1500" width="80" height="80" as="geometry"/>
                </mxCell>
                <mxCell id="90" value="&lt;font style=&quot;font-size: 32px&quot;&gt;9&lt;/font&gt;" style="whiteSpace=wrap;html=1;aspect=fixed;fontSize=32;fontFamily=Courier New;fillColor=#D5FEFF;fontColor=#000000;fontStyle=1;labelBorderColor=none;strokeColor=#000000;strokeWidth=1;" vertex="1" parent="1">
                    <mxGeometry x="379" y="1500" width="80" height="80" as="geometry"/>
                </mxCell>
                <mxCell id="91" value="&lt;font style=&quot;font-size: 32px&quot;&gt;10&lt;/font&gt;" style="whiteSpace=wrap;html=1;aspect=fixed;fontSize=32;fontFamily=Courier New;fillColor=#D5FEFF;fontColor=#000000;fontStyle=1;labelBorderColor=none;strokeColor=#000000;strokeWidth=1;" vertex="1" parent="1">
                    <mxGeometry x="459" y="1500" width="80" height="80" as="geometry"/>
                </mxCell>
                <mxCell id="92" value="&lt;font style=&quot;font-size: 32px&quot;&gt;16&lt;/font&gt;" style="whiteSpace=wrap;html=1;aspect=fixed;fontSize=32;fontFamily=Courier New;fillColor=#D5FEFF;fontColor=#000000;fontStyle=1;labelBorderColor=none;strokeColor=#000000;strokeWidth=1;" vertex="1" parent="1">
                    <mxGeometry x="619" y="1500" width="80" height="80" as="geometry"/>
                </mxCell>
                <mxCell id="93" value="&lt;font style=&quot;font-size: 32px&quot;&gt;15&lt;/font&gt;" style="whiteSpace=wrap;html=1;aspect=fixed;fontSize=32;fontFamily=Courier New;fillColor=#D5FEFF;fontColor=#000000;fontStyle=1;labelBorderColor=none;strokeColor=#000000;strokeWidth=1;" vertex="1" parent="1">
                    <mxGeometry x="539" y="1500" width="80" height="80" as="geometry"/>
                </mxCell>
                <mxCell id="94" value="&lt;font style=&quot;font-size: 32px&quot;&gt;20&lt;/font&gt;" style="whiteSpace=wrap;html=1;aspect=fixed;fontSize=32;fontFamily=Courier New;fillColor=#D5FEFF;fontColor=#000000;fontStyle=1;labelBorderColor=none;strokeColor=#000000;strokeWidth=1;" vertex="1" parent="1">
                    <mxGeometry x="699" y="1500" width="80" height="80" as="geometry"/>
                </mxCell>
                <mxCell id="95" value="5" style="whiteSpace=wrap;html=1;aspect=fixed;fontSize=32;fontFamily=Courier New;fillColor=#FFFED6;fontColor=#000000;fontStyle=1;labelBorderColor=none;strokeColor=#000000;strokeWidth=1;labelBackgroundColor=#FFFED6;" vertex="1" parent="1">
                    <mxGeometry x="43" y="1695" width="80" height="80" as="geometry"/>
                </mxCell>
                <mxCell id="96" value="&lt;font style=&quot;font-size: 32px&quot;&gt;3&lt;/font&gt;" style="whiteSpace=wrap;html=1;aspect=fixed;fontSize=32;fontFamily=Courier New;fillColor=#FFFED6;fontColor=#000000;fontStyle=1;labelBorderColor=none;strokeColor=#000000;strokeWidth=1;labelBackgroundColor=#FFFED6;" vertex="1" parent="1">
                    <mxGeometry x="123" y="1695" width="80" height="80" as="geometry"/>
                </mxCell>
                <mxCell id="97" value="2" style="whiteSpace=wrap;html=1;aspect=fixed;fontSize=32;fontFamily=Courier New;fillColor=#FFFED6;fontColor=#000000;fontStyle=1;labelBorderColor=none;strokeColor=#000000;strokeWidth=1;labelBackgroundColor=#FFFED6;" vertex="1" parent="1">
                    <mxGeometry x="203" y="1695" width="80" height="80" as="geometry"/>
                </mxCell>
                <mxCell id="98" value="&lt;font style=&quot;font-size: 32px&quot;&gt;4&lt;/font&gt;" style="whiteSpace=wrap;html=1;aspect=fixed;fontSize=32;fontFamily=Courier New;fillColor=#FFFED6;fontColor=#000000;fontStyle=1;labelBorderColor=none;strokeColor=#000000;strokeWidth=1;labelBackgroundColor=#FFFED6;" vertex="1" parent="1">
                    <mxGeometry x="283" y="1695" width="80" height="80" as="geometry"/>
                </mxCell>
                <mxCell id="99" value="&lt;font style=&quot;font-size: 32px&quot;&gt;1&lt;/font&gt;" style="whiteSpace=wrap;html=1;aspect=fixed;fontSize=32;fontFamily=Courier New;fillColor=#FFFED6;fontColor=#000000;fontStyle=1;labelBorderColor=none;strokeColor=#000000;strokeWidth=1;labelBackgroundColor=#FFFED6;" vertex="1" parent="1">
                    <mxGeometry x="363" y="1695" width="80" height="80" as="geometry"/>
                </mxCell>
                <mxCell id="100" value="&lt;font style=&quot;font-size: 32px&quot;&gt;4&lt;/font&gt;" style="whiteSpace=wrap;html=1;aspect=fixed;fontSize=32;fontFamily=Courier New;fillColor=#FFFED6;fontColor=#000000;fontStyle=1;labelBorderColor=none;strokeColor=#000000;strokeWidth=1;labelBackgroundColor=#FFFED6;" vertex="1" parent="1">
                    <mxGeometry x="443" y="1695" width="80" height="80" as="geometry"/>
                </mxCell>
                <mxCell id="101" value="&lt;font style=&quot;font-size: 32px&quot;&gt;7&lt;/font&gt;" style="whiteSpace=wrap;html=1;aspect=fixed;fontSize=32;fontFamily=Courier New;fillColor=#FFFED6;fontColor=#000000;fontStyle=1;labelBorderColor=none;strokeColor=#000000;strokeWidth=1;labelBackgroundColor=#FFFED6;" vertex="1" parent="1">
                    <mxGeometry x="523" y="1695" width="80" height="80" as="geometry"/>
                </mxCell>
                <mxCell id="102" value="&lt;font style=&quot;font-size: 32px&quot;&gt;5&lt;/font&gt;" style="whiteSpace=wrap;html=1;aspect=fixed;fontSize=32;fontFamily=Courier New;fillColor=#FFFED6;fontColor=#000000;fontStyle=1;labelBorderColor=none;strokeColor=#000000;strokeWidth=1;labelBackgroundColor=#FFFED6;" vertex="1" parent="1">
                    <mxGeometry x="603" y="1695" width="80" height="80" as="geometry"/>
                </mxCell>
                <mxCell id="111" value="&lt;b style=&quot;color: rgb(255 , 0 , 0) ; font-family: &amp;quot;courier new&amp;quot; ; font-size: 28px ; background-color: rgb(1 , 22 , 54)&quot;&gt;i&lt;/b&gt;" style="text;html=1;strokeColor=none;fillColor=none;align=center;verticalAlign=middle;whiteSpace=wrap;rounded=0;" vertex="1" parent="1">
                    <mxGeometry x="284" y="1642" width="79" height="53" as="geometry"/>
                </mxCell>
                <mxCell id="112" value="&lt;b style=&quot;color: rgb(255 , 0 , 0) ; font-family: &amp;#34;courier new&amp;#34; ; font-size: 28px ; background-color: rgb(1 , 22 , 54)&quot;&gt;f(i)&lt;/b&gt;" style="text;html=1;strokeColor=none;fillColor=none;align=left;verticalAlign=middle;whiteSpace=wrap;rounded=0;" vertex="1" parent="1">
                    <mxGeometry x="283.5" y="1959" width="79" height="53" as="geometry"/>
                </mxCell>
                <mxCell id="113" value="&lt;b style=&quot;color: rgb(255 , 0 , 0) ; font-family: &amp;quot;courier new&amp;quot; ; font-size: 28px ; font-style: normal ; letter-spacing: normal ; text-indent: 0px ; text-transform: none ; word-spacing: 0px ; background-color: rgb(1 , 22 , 54)&quot;&gt;j&lt;/b&gt;" style="text;whiteSpace=wrap;html=1;fontSize=28;fontFamily=Courier New;fontColor=#FF0000;verticalAlign=middle;align=center;" vertex="1" parent="1">
                    <mxGeometry x="443" y="1647" width="80" height="48" as="geometry"/>
                </mxCell>
                <mxCell id="114" value="1" style="whiteSpace=wrap;html=1;aspect=fixed;fontSize=32;fontFamily=Courier New;fillColor=#FFFED6;fontColor=#000000;fontStyle=1;labelBorderColor=none;strokeColor=#000000;strokeWidth=1;labelBackgroundColor=#FFFED6;" vertex="1" parent="1">
                    <mxGeometry x="43" y="1879" width="80" height="80" as="geometry"/>
                </mxCell>
                <mxCell id="115" value="&lt;font style=&quot;font-size: 32px&quot;&gt;2&lt;/font&gt;" style="whiteSpace=wrap;html=1;aspect=fixed;fontSize=32;fontFamily=Courier New;fillColor=#FFFED6;fontColor=#000000;fontStyle=1;labelBorderColor=none;strokeColor=#000000;strokeWidth=1;labelBackgroundColor=#FFFED6;" vertex="1" parent="1">
                    <mxGeometry x="123" y="1879" width="80" height="80" as="geometry"/>
                </mxCell>
                <mxCell id="116" value="3" style="whiteSpace=wrap;html=1;aspect=fixed;fontSize=32;fontFamily=Courier New;fillColor=#FFFED6;fontColor=#000000;fontStyle=1;labelBorderColor=none;strokeColor=#000000;strokeWidth=1;labelBackgroundColor=#FFFED6;" vertex="1" parent="1">
                    <mxGeometry x="203" y="1879" width="80" height="80" as="geometry"/>
                </mxCell>
                <mxCell id="117" value="&lt;font style=&quot;font-size: 32px&quot;&gt;4&lt;/font&gt;" style="whiteSpace=wrap;html=1;aspect=fixed;fontSize=32;fontFamily=Courier New;fillColor=#FFFED6;fontColor=#000000;fontStyle=1;labelBorderColor=none;strokeColor=#000000;strokeWidth=1;labelBackgroundColor=#FFFED6;" vertex="1" parent="1">
                    <mxGeometry x="283" y="1879" width="80" height="80" as="geometry"/>
                </mxCell>
                <mxCell id="118" value="&lt;font style=&quot;font-size: 32px&quot;&gt;4&lt;/font&gt;" style="whiteSpace=wrap;html=1;aspect=fixed;fontSize=32;fontFamily=Courier New;fillColor=#FFFED6;fontColor=#000000;fontStyle=1;labelBorderColor=none;strokeColor=#000000;strokeWidth=1;labelBackgroundColor=#FFFED6;" vertex="1" parent="1">
                    <mxGeometry x="363" y="1879" width="80" height="80" as="geometry"/>
                </mxCell>
                <mxCell id="119" value="&lt;font style=&quot;font-size: 32px&quot;&gt;5&lt;/font&gt;" style="whiteSpace=wrap;html=1;aspect=fixed;fontSize=32;fontFamily=Courier New;fillColor=#FFFED6;fontColor=#000000;fontStyle=1;labelBorderColor=none;strokeColor=#000000;strokeWidth=1;labelBackgroundColor=#FFFED6;" vertex="1" parent="1">
                    <mxGeometry x="443" y="1879" width="80" height="80" as="geometry"/>
                </mxCell>
                <mxCell id="120" value="&lt;font style=&quot;font-size: 32px&quot;&gt;5&lt;/font&gt;" style="whiteSpace=wrap;html=1;aspect=fixed;fontSize=32;fontFamily=Courier New;fillColor=#FFFED6;fontColor=#000000;fontStyle=1;labelBorderColor=none;strokeColor=#000000;strokeWidth=1;labelBackgroundColor=#FFFED6;" vertex="1" parent="1">
                    <mxGeometry x="523" y="1879" width="80" height="80" as="geometry"/>
                </mxCell>
                <mxCell id="121" value="&lt;font style=&quot;font-size: 32px&quot;&gt;7&lt;/font&gt;" style="whiteSpace=wrap;html=1;aspect=fixed;fontSize=32;fontFamily=Courier New;fillColor=#FFFED6;fontColor=#000000;fontStyle=1;labelBorderColor=none;strokeColor=#000000;strokeWidth=1;labelBackgroundColor=#FFFED6;" vertex="1" parent="1">
                    <mxGeometry x="603" y="1879" width="80" height="80" as="geometry"/>
                </mxCell>
                <mxCell id="123" value="&lt;b style=&quot;color: rgb(255 , 0 , 0) ; font-family: &amp;#34;courier new&amp;#34; ; font-size: 28px ; font-style: normal ; letter-spacing: normal ; text-indent: 0px ; text-transform: none ; word-spacing: 0px ; background-color: rgb(1 , 22 , 54)&quot;&gt;f(j)&lt;/b&gt;" style="text;whiteSpace=wrap;html=1;fontSize=28;fontFamily=Courier New;fontColor=#FF0000;verticalAlign=middle;align=center;" vertex="1" parent="1">
                    <mxGeometry x="367" y="1961.5" width="80" height="48" as="geometry"/>
                </mxCell>
                <mxCell id="126" value="" style="endArrow=classicThin;html=1;fontFamily=Courier New;fontSize=28;fontColor=#FF0000;strokeWidth=3;dashed=1;dashPattern=1 2;exitX=0.5;exitY=1;exitDx=0;exitDy=0;entryX=0.5;entryY=0;entryDx=0;entryDy=0;endFill=1;" edge="1" parent="1" source="95" target="119">
                    <mxGeometry width="50" height="50" relative="1" as="geometry">
                        <mxPoint x="365" y="1846" as="sourcePoint"/>
                        <mxPoint x="415" y="1796" as="targetPoint"/>
                    </mxGeometry>
                </mxCell>
                <mxCell id="127" value="" style="endArrow=classicThin;html=1;fontFamily=Courier New;fontSize=28;fontColor=#FF0000;strokeWidth=3;dashed=1;dashPattern=1 2;endFill=1;exitX=0.5;exitY=1;exitDx=0;exitDy=0;" edge="1" parent="1" source="98">
                    <mxGeometry width="50" height="50" relative="1" as="geometry">
                        <mxPoint x="340" y="1803" as="sourcePoint"/>
                        <mxPoint x="323" y="1879" as="targetPoint"/>
                    </mxGeometry>
                </mxCell>
                <mxCell id="128" value="" style="endArrow=classicThin;html=1;fontFamily=Courier New;fontSize=28;fontColor=#FF0000;strokeWidth=3;dashed=1;dashPattern=1 2;exitX=0.5;exitY=1;exitDx=0;exitDy=0;entryX=0.5;entryY=0;entryDx=0;entryDy=0;endFill=1;" edge="1" parent="1" source="100" target="118">
                    <mxGeometry width="50" height="50" relative="1" as="geometry">
                        <mxPoint x="103" y="1795" as="sourcePoint"/>
                        <mxPoint x="503" y="1899" as="targetPoint"/>
                    </mxGeometry>
                </mxCell>
                <mxCell id="129" value="" style="endArrow=classicThin;html=1;fontFamily=Courier New;fontSize=28;fontColor=#FF0000;strokeWidth=3;dashed=1;dashPattern=1 2;exitX=0.5;exitY=1;exitDx=0;exitDy=0;entryX=0.5;entryY=0;entryDx=0;entryDy=0;endFill=1;" edge="1" parent="1" source="102" target="120">
                    <mxGeometry width="50" height="50" relative="1" as="geometry">
                        <mxPoint x="113" y="1805" as="sourcePoint"/>
                        <mxPoint x="513" y="1909" as="targetPoint"/>
                    </mxGeometry>
                </mxCell>
            </root>
        </mxGraphModel>
    </diagram>
</mxfile>